STARTFONT 2.1
FONT -MIT-40VG KST-Medium-R-Normal--40-14-200-200-P-22-ISO8859-1
SIZE 14 200 200
FONTBOUNDINGBOX 35 40 -11 -8
STARTPROPERTIES 17
ADD_STYLE_NAME ""
AVERAGE_WIDTH 22
CHARSET_ENCODING "1"
CHARSET_REGISTRY "ISO8859"
DEFAULT_CHAR 0
FAMILY "40VG KST"
FONT_ASCENT 32
FONT_DESCENT 8
FOUNDRY "MIT"
PIXEL_SIZE 40
POINT_SIZE 14
RESOLUTION_X 200
RESOLUTION_Y 200
SETWIDTH_NAME "Normal"
SLANT "R"
SPACING "P"
WEIGHT_NAME "Medium"
ENDPROPERTIES
CHARS 127
STARTCHAR char1
ENCODING 1
SWIDTH 1775 0
DWIDTH 25 0
BBX 19 40 1 -8
BITMAP
00E000
00E000
00E000
00E000
00E000
00E000
00E000
00E000
00E000
00E000
00E000
00E000
00E000
00E000
00E000
00E000
00E000
C0E060
E0E0E0
F0E1E0
F0E1E0
78E3C0
78E3C0
3CE780
1CE700
0FFE00
0FFE00
07FC00
07FC00
03F800
01F000
00E000
000000
000000
000000
000000
000000
000000
000000
000000
ENDCHAR
STARTCHAR char2
ENCODING 2
SWIDTH 1775 0
DWIDTH 25 0
BBX 21 40 0 -8
BITMAP
000000
000000
000000
000000
000000
000000
000000
000000
000000
000000
000038
000078
0FE070
1FE070
3FF8E0
703DE0
601FE0
E00FC0
E00F80
E00780
E00780
E00780
E00780
E00780
E00F80
E00F80
E00FC0
601FC0
7039C0
3FF0F8
1FE038
0FC008
000000
000000
000000
000000
000000
000000
000000
000000
ENDCHAR
STARTCHAR char3
ENCODING 3
SWIDTH 1775 0
DWIDTH 25 0
BBX 21 40 0 -8
BITMAP
000F80
003FC0
007FE0
00FFF0
01FFF0
03E0F0
07C070
0F8070
0F0070
1E00E0
1C00E0
1C01E0
3801C0
300380
700700
700F00
701F00
700FC0
7007E0
F001F0
F000F8
F00078
F00078
F00078
F00078
F00078
F00078
FE00F8
FFFFF0
FFFFE0
E3FFC0
E00000
E00000
E00000
E00000
E00000
E00000
E00000
E00000
E00000
ENDCHAR
STARTCHAR char4
ENCODING 4
SWIDTH 1775 0
DWIDTH 25 0
BBX 21 40 0 -8
BITMAP
000000
000000
000000
000000
000000
000000
000000
000000
000000
000000
000000
000000
007000
00F800
01FC00
038E00
038E00
078F00
070700
0E0380
0E0380
1C01C0
1C01C0
3800E0
3800E0
700070
700070
E00038
E00038
C00018
C00018
800008
000000
000000
000000
000000
000000
000000
000000
000000
ENDCHAR
STARTCHAR char5
ENCODING 5
SWIDTH 1775 0
DWIDTH 25 0
BBX 23 40 0 -8
BITMAP
000000
000000
000000
000000
000000
000000
000000
000000
000000
000000
000000
000000
000000
000000
000000
000000
FFFFFE
FFFFFE
FFFFFE
00000E
00000E
00000E
00000E
00000E
00000E
00000E
000000
000000
000000
000000
000000
000000
000000
000000
000000
000000
000000
000000
000000
000000
ENDCHAR
STARTCHAR char6
ENCODING 6
SWIDTH 1775 0
DWIDTH 25 0
BBX 14 40 3 -8
BITMAP
0000
0000
0000
0000
0000
0000
0000
0000
0000
0000
0000
0000
03FC
0FE0
3F80
3C00
7800
7000
E000
E000
E000
FFE0
FFE0
E000
E000
E000
7000
7800
3C00
3F80
0FC0
03FC
0000
0000
0000
0000
0000
0000
0000
0000
ENDCHAR
STARTCHAR char7
ENCODING 7
SWIDTH 1775 0
DWIDTH 25 0
BBX 23 40 0 -8
BITMAP
000000
000000
000000
000000
000000
000000
000000
000000
000000
000000
000000
00000E
1FFFFE
FFFFFE
F1C7F0
E1C3E0
C1C3C0
01C3C0
01C1C0
0381C0
0781C0
0701C0
0701C0
0701C0
0700E0
0E00E0
0E00F0
0E0070
0E0070
0E0038
0E0038
0E0038
000000
000000
000000
000000
000000
000000
000000
000000
ENDCHAR
STARTCHAR char8
ENCODING 8
SWIDTH 1775 0
DWIDTH 25 0
BBX 21 40 0 -8
BITMAP
000000
000000
000000
000000
7F0000
FF8000
FFC000
83C000
81E000
00E000
007000
007000
003800
003800
003C00
003C00
003C00
003E00
007E00
00FE00
01FF00
03EF00
07C700
0F8380
1F0380
3E01C0
7C01C0
7800E0
7000E0
E00070
E00078
E00078
000000
000000
000000
000000
000000
000000
000000
000000
ENDCHAR
STARTCHAR char9
ENCODING 9
SWIDTH 1775 0
DWIDTH 25 0
BBX 21 40 0 -8
BITMAP
000000
000000
000000
000000
000000
000008
E00018
F00078
F80078
7C00F0
3E03E0
1F03C0
0F8F80
07CF00
03FE00
01FC00
00FC00
00FC00
00FC00
00FC00
00FC00
00FC00
00FC00
00DC00
00DC00
00DC00
005C00
007C00
007C00
003800
000000
000000
000000
000000
000000
000000
000000
000000
000000
000000
ENDCHAR
STARTCHAR char10
ENCODING 10
SWIDTH 1775 0
DWIDTH 25 0
BBX 18 40 0 -8
BITMAP
000000
000000
000000
000000
000000
03FE00
0FFFC0
3FFFC0
7FFFC0
7801C0
700040
780000
7C0000
3F8000
03C000
03F000
03FE00
03FF00
3FFF80
7FFFC0
F803C0
C001C0
C001C0
C001C0
C001C0
E001C0
F003C0
FC0780
7FFF80
7FFF80
0FFC00
0FF800
000000
000000
000000
000000
000000
000000
000000
000000
ENDCHAR
STARTCHAR char11
ENCODING 11
SWIDTH 1775 0
DWIDTH 25 0
BBX 19 40 1 -8
BITMAP
00E000
01F000
03F800
07FC00
07FC00
0FFE00
0FFE00
1CE700
3CE780
78E3C0
78E3C0
F8E3E0
F0E1E0
E0E0E0
C0E060
00E000
00E000
00E000
00E000
00E000
00E000
00E000
00E000
00E000
00E000
00E000
00E000
00E000
00E000
00E000
00E000
00E000
000000
000000
000000
000000
000000
000000
000000
000000
ENDCHAR
STARTCHAR char12
ENCODING 12
SWIDTH 1775 0
DWIDTH 25 0
BBX 23 40 0 -8
BITMAP
000000
000000
003800
003800
003800
003800
003800
003800
003800
003800
003800
FFFFFE
FFFFFE
FFFFFE
003800
003800
003800
003800
003800
003800
003800
003800
003800
003800
000000
000000
000000
FFFFFE
FFFFFE
FFFFFE
000000
000000
000000
000000
000000
000000
000000
000000
000000
000000
ENDCHAR
STARTCHAR char13
ENCODING 13
SWIDTH 1775 0
DWIDTH 25 0
BBX 21 40 0 -8
BITMAP
000000
000000
000000
000000
000000
000000
000000
000000
01FC00
07FF00
0FFF80
1C71C0
3870E0
707070
607030
E07018
E07018
FFFFF8
FFFFF8
FFFFF8
FFFFF8
E07018
E07018
607030
707070
3870E0
1C71C0
0FFF80
07FF00
01FC00
000000
000000
000000
000000
000000
000000
000000
000000
000000
000000
ENDCHAR
STARTCHAR char14
ENCODING 14
SWIDTH 1775 0
DWIDTH 25 0
BBX 21 40 0 -8
BITMAP
000000
000000
000000
000000
000000
000000
000000
000000
000000
000000
000000
000000
000000
000000
000000
3F07E0
7F8FF0
E1FC18
E0F818
E0F818
E0F818
E0F818
E0F818
E0F818
E0F818
FFFFF8
7F8FF0
3F07E0
000000
000000
000000
000000
000000
000000
000000
000000
000000
000000
000000
000000
ENDCHAR
STARTCHAR char15
ENCODING 15
SWIDTH 1775 0
DWIDTH 25 0
BBX 19 40 1 -8
BITMAP
01F000
07FC00
07FF00
07FF80
0701C0
0000E0
0000E0
0000E0
0000E0
0000E0
0000E0
0000E0
0000E0
0000E0
0000E0
0FF8E0
1FFFE0
3FFFE0
7803E0
F001E0
F001E0
F001E0
F001E0
F001E0
F001E0
F001C0
F00380
700F00
3FFE00
3FFC00
0FF800
07F000
000000
000000
000000
000000
000000
000000
000000
000000
ENDCHAR
STARTCHAR char16
ENCODING 16
SWIDTH 1775 0
DWIDTH 25 0
BBX 21 40 0 -8
BITMAP
000000
000000
000000
000000
000000
000000
000000
000000
000000
000000
000000
01FFF8
03FFF8
0FFFF8
1E0000
3E0000
7C0000
F80000
F00000
E00000
E00000
E00000
E00000
E00000
F00000
F80000
7C0000
3E0000
1E0000
0FFFF8
03FFF8
01FFF8
000000
000000
000000
000000
000000
000000
000000
000000
ENDCHAR
STARTCHAR char17
ENCODING 17
SWIDTH 1775 0
DWIDTH 25 0
BBX 21 40 0 -8
BITMAP
000000
000000
000000
000000
000000
000000
000000
000000
000000
000000
000000
FFFC00
FFFE00
FFFF80
0003C0
0003E0
0001F0
0000F8
000078
000038
000038
000038
000038
000038
000078
0000F8
0001F0
0003E0
0003C0
FFFF80
FFFE00
FFFC00
000000
000000
000000
000000
000000
000000
000000
000000
ENDCHAR
STARTCHAR char18
ENCODING 18
SWIDTH 1775 0
DWIDTH 25 0
BBX 18 40 1 -8
BITMAP
000000
000000
000000
000000
000000
01E000
0FFC00
1FFE00
3E1F00
7C0F80
F807C0
E001C0
E001C0
E001C0
E001C0
E001C0
E001C0
E001C0
E001C0
E001C0
E001C0
E001C0
E001C0
E001C0
E001C0
E001C0
E001C0
E001C0
E001C0
E001C0
E001C0
E001C0
000000
000000
000000
000000
000000
000000
000000
000000
ENDCHAR
STARTCHAR char19
ENCODING 19
SWIDTH 1775 0
DWIDTH 25 0
BBX 18 40 1 -8
BITMAP
000000
000000
000000
000000
000000
E001C0
E001C0
E001C0
E001C0
E001C0
E001C0
E001C0
E001C0
E001C0
E001C0
E001C0
E001C0
E001C0
E001C0
E001C0
E001C0
E001C0
E001C0
E001C0
E001C0
E001C0
F807C0
7C0F80
3E1F00
1FFE00
0FFC00
01E000
000000
000000
000000
000000
000000
000000
000000
000000
ENDCHAR
STARTCHAR char20
ENCODING 20
SWIDTH 1775 0
DWIDTH 25 0
BBX 23 40 0 -8
BITMAP
F0000E
F0000E
F0000E
70001C
380038
380038
380038
380038
1E00F0
1E00F0
1E00F0
0FFFF0
0FFFE0
07FFC0
0701C0
0701C0
0701C0
038380
03C780
01C700
01C700
01C700
00FE00
00FE00
00FE00
00FE00
007C00
003800
003800
003800
003800
003800
000000
000000
000000
000000
000000
000000
000000
000000
ENDCHAR
STARTCHAR char21
ENCODING 21
SWIDTH 1775 0
DWIDTH 25 0
BBX 21 40 0 -8
BITMAP
FFFFF8
FFFFF8
FFFFF8
000078
000078
000078
000078
000078
000078
000078
000078
000078
000078
000078
00FFF8
00FFF8
00FFF8
00FFF8
000078
000078
000078
000078
000078
000078
000078
000078
000078
000078
000078
FFFFF8
FFFFF8
FFFFF8
000000
000000
000000
000000
000000
000000
000000
000000
ENDCHAR
STARTCHAR char22
ENCODING 22
SWIDTH 1775 0
DWIDTH 25 0
BBX 21 40 0 -8
BITMAP
000000
000000
000000
000000
000000
000000
000000
000000
000000
000000
000000
000000
01FC00
07FF00
0FFF80
1C01C0
3E03E0
7F07F0
630E10
E3FE18
E1FC18
E0F818
E0F818
E1FC18
E3FE18
638E10
7F07F0
3E03E0
1C01C0
0FFF80
07FF00
01FC00
000000
000000
000000
000000
000000
000000
000000
000000
ENDCHAR
STARTCHAR char23
ENCODING 23
SWIDTH 1775 0
DWIDTH 25 0
BBX 21 40 0 -8
BITMAP
000000
000000
000000
000000
000000
000000
000000
000000
000000
000000
000000
000000
000000
060300
060300
1E03C0
3C01E0
3800E0
FFFFF8
FFFFF8
FFFFF8
FFFFF8
FFFFF8
3800E0
1C01C0
1E03C0
060300
060300
000000
000000
000000
000000
000000
000000
000000
000000
000000
000000
000000
000000
ENDCHAR
STARTCHAR char24
ENCODING 24
SWIDTH 1775 0
DWIDTH 25 0
BBX 21 40 0 -8
BITMAP
000000
000000
000000
000000
000000
000000
000000
000000
000000
000000
000000
000000
000000
070000
0F0000
1C0000
380000
780000
F00000
FFFFF8
FFFFF8
FFFFF8
F00000
780000
380000
1C0000
0F0000
070000
000000
000000
000000
000000
000000
000000
000000
000000
000000
000000
000000
000000
ENDCHAR
STARTCHAR char25
ENCODING 25
SWIDTH 1775 0
DWIDTH 25 0
BBX 21 40 0 -8
BITMAP
000000
000000
000000
000000
000000
000000
000000
000000
000000
000000
000000
000000
000000
000700
000780
0001C0
0000E0
0000F0
000078
FFFFF8
FFFFF8
FFFFF8
000078
0000F0
0000E0
0001C0
000780
000700
000000
000000
000000
000000
000000
000000
000000
000000
000000
000000
000000
000000
ENDCHAR
STARTCHAR char26
ENCODING 26
SWIDTH 1775 0
DWIDTH 25 0
BBX 20 40 1 -8
BITMAP
000000
000000
000000
000000
000000
000000
000000
000000
000000
000000
000000
000000
0000E0
0001C0
000380
000780
FFFFF0
FFFFF0
FFFFF0
003C00
003800
007000
00F000
FFFFF0
FFFFF0
FFFFF0
1E0000
1C0000
380000
700000
000000
000000
000000
000000
000000
000000
000000
000000
000000
000000
ENDCHAR
STARTCHAR char27
ENCODING 27
SWIDTH 1775 0
DWIDTH 25 0
BBX 19 40 0 -8
BITMAP
000000
000000
000000
000000
004000
004000
00E000
01F000
01F000
01F000
03F800
07FC00
0F1E00
1E1F00
3C0780
7C07C0
FC07E0
FC07E0
7C07C0
3C0780
1E0F00
1F1E00
07FC00
03F800
01F000
01F000
01F000
00E000
00E000
004000
000000
000000
000000
000000
000000
000000
000000
000000
000000
000000
ENDCHAR
STARTCHAR char28
ENCODING 28
SWIDTH 1775 0
DWIDTH 25 0
BBX 20 40 1 -8
BITMAP
000000
000000
000000
000000
000000
000000
000070
0000F0
0007F0
001F80
003F00
01FC00
03F000
0FC000
FE0000
FE0000
FE0000
1FC000
0FC000
03F800
00FE00
003F00
000FF0
0003F0
0000F0
000000
000000
000000
000000
FFFFF0
FFFFF0
FFFFF0
000000
000000
000000
000000
000000
000000
000000
000000
ENDCHAR
STARTCHAR char29
ENCODING 29
SWIDTH 1775 0
DWIDTH 25 0
BBX 20 40 1 -8
BITMAP
000000
000000
000000
000000
000000
000000
E00000
F00000
FE0000
1F8000
0FC000
03F800
00FE00
003F00
0007F0
0007F0
0007F0
003F80
003F00
01FC00
03F000
0FC000
FF0000
FC0000
F00000
000000
000000
000000
000000
FFFFF0
FFFFF0
FFFFF0
000000
000000
000000
000000
000000
000000
000000
000000
ENDCHAR
STARTCHAR char30
ENCODING 30
SWIDTH 1775 0
DWIDTH 25 0
BBX 20 40 1 -8
BITMAP
000000
000000
000000
000000
000000
000000
000000
000000
000000
000000
000000
000000
000000
FFFFF0
FFFFF0
FFFFF0
000000
000000
000000
FFFFF0
FFFFF0
FFFFF0
FFFFF0
000000
000000
000000
FFFFF0
FFFFF0
FFFFF0
000000
000000
000000
000000
000000
000000
000000
000000
000000
000000
000000
ENDCHAR
STARTCHAR char31
ENCODING 31
SWIDTH 1775 0
DWIDTH 25 0
BBX 21 40 0 -8
BITMAP
000000
000000
000000
000000
000000
000000
000000
000000
000000
000000
000000
000000
800008
C00018
C00018
E00038
E00038
700070
700070
3800E0
3800E0
1C01C0
1C01C0
0E0380
0E0380
070780
078F00
038E00
038E00
01FC00
00F800
007000
000000
000000
000000
000000
000000
000000
000000
000000
ENDCHAR
STARTCHAR char32
ENCODING 32
SWIDTH 1136 0
DWIDTH 16 0
BBX 1 40 0 -8
BITMAP
00
00
00
00
00
00
00
00
00
00
00
00
00
00
00
00
00
00
00
00
00
00
00
00
00
00
00
00
00
00
00
00
00
00
00
00
00
00
00
00
ENDCHAR
STARTCHAR char33
ENCODING 33
SWIDTH 1775 0
DWIDTH 25 0
BBX 4 40 9 -8
BITMAP
F0
F0
F0
F0
F0
F0
F0
F0
F0
F0
F0
F0
F0
F0
F0
F0
F0
F0
F0
F0
F0
F0
00
00
00
00
00
F0
F0
F0
F0
F0
00
00
00
00
00
00
00
00
ENDCHAR
STARTCHAR char34
ENCODING 34
SWIDTH 781 0
DWIDTH 11 0
BBX 8 40 1 -8
BITMAP
00
00
E7
E7
E7
E7
E7
E7
E7
E7
00
00
00
00
00
00
00
00
00
00
00
00
00
00
00
00
00
00
00
00
00
00
00
00
00
00
00
00
00
00
ENDCHAR
STARTCHAR char35
ENCODING 35
SWIDTH 1775 0
DWIDTH 25 0
BBX 23 40 0 -8
BITMAP
00F00E
00F00E
00F00E
00F00E
00E01E
01C03C
01C03C
01C03C
3FFFFE
3FFFFE
3FFFFE
0700F0
0700F0
0700F0
0700F0
0700F0
0E01C0
0E01C0
0E01C0
0E01C0
0E01C0
FFFFF8
FFFFF8
FFFFF8
780700
780700
780700
700E00
F00E00
F00E00
F00E00
F00E00
000000
000000
000000
000000
000000
000000
000000
000000
ENDCHAR
STARTCHAR char36
ENCODING 36
SWIDTH 1633 0
DWIDTH 23 0
BBX 20 40 1 -8
BITMAP
000000
007800
007800
007800
007800
03FF80
0FFFC0
1E78E0
1C79F0
3C79F0
3C78E0
3E7800
3F7800
1FF800
1FFC00
07FF00
01FFC0
007FE0
007BF0
7879F0
FC78F0
FC7870
787870
707860
3878E0
1FFFC0
07FF80
007800
007800
007800
007800
000000
000000
000000
000000
000000
000000
000000
000000
000000
ENDCHAR
STARTCHAR char37
ENCODING 37
SWIDTH 1775 0
DWIDTH 25 0
BBX 21 40 0 -8
BITMAP
000070
000070
3E0070
7F00E0
FF81E0
E1C1C0
E1C3C0
E1C380
E1C380
E1C700
7F8F00
3F0E00
000E00
001C00
003C00
003800
007800
007000
007000
00E000
01E000
01C3C0
03C7E0
038FF0
039C18
071C18
0F1C18
0E1C18
1E1C18
1C0FF0
1C07E0
1C03C0
000000
000000
000000
000000
000000
000000
000000
000000
ENDCHAR
STARTCHAR char38
ENCODING 38
SWIDTH 1775 0
DWIDTH 25 0
BBX 21 40 0 -8
BITMAP
007E00
00FF00
07CF80
0787C0
0703C0
0F01C0
0F01C0
0F01C0
0F0380
078780
03CF80
01FC00
03F800
0FF000
1FF000
3FF000
7CF800
F87C00
F03E00
F03E38
F01F38
F00F38
F00FB8
F00FB8
F007F0
F807F0
FC07F0
7E0FF8
7FFFF8
3FFE38
0FFC00
03F800
000000
000000
000000
000000
000000
000000
000000
000000
ENDCHAR
STARTCHAR char39
ENCODING 39
SWIDTH 1775 0
DWIDTH 25 0
BBX 8 40 4 -8
BITMAP
7E
7E
FF
FF
7F
3F
1F
1E
1C
38
30
20
00
00
00
00
00
00
00
00
00
00
00
00
00
00
00
00
00
00
00
00
00
00
00
00
00
00
00
00
ENDCHAR
STARTCHAR char40
ENCODING 40
SWIDTH 1775 0
DWIDTH 25 0
BBX 8 40 10 -8
BITMAP
0F
1F
1E
3C
38
70
70
70
70
70
F0
F0
F0
F0
F0
F0
F0
F0
F0
F0
F0
F0
70
70
70
70
70
38
3C
1E
1F
0F
00
00
00
00
00
00
00
00
ENDCHAR
STARTCHAR char41
ENCODING 41
SWIDTH 1775 0
DWIDTH 25 0
BBX 9 40 3 -8
BITMAP
F000
F800
7C00
3C00
1E00
0E00
0E00
0F00
0F00
0F00
0F00
0F80
0F80
0F80
0F80
0F80
0F80
0F80
0F80
0F80
0F80
0F00
0F00
0F00
0F00
0E00
0E00
1E00
3C00
7C00
F800
F000
0000
0000
0000
0000
0000
0000
0000
0000
ENDCHAR
STARTCHAR char42
ENCODING 42
SWIDTH 1775 0
DWIDTH 25 0
BBX 23 40 0 -8
BITMAP
000000
000000
000000
000000
000000
000000
000000
000000
003800
007C00
007C00
E0380E
F0381E
F8383E
FC387E
FE38FE
1FFFF0
0FFFE0
07FFC0
03FF80
03FF80
07FFC0
0FFFE0
1FFFF0
FE38FE
FC387E
F8383E
F0381E
E0380E
007C00
007C00
003800
000000
000000
000000
000000
000000
000000
000000
000000
ENDCHAR
STARTCHAR char43
ENCODING 43
SWIDTH 1349 0
DWIDTH 19 0
BBX 16 40 0 -8
BITMAP
0000
0000
0000
0000
0000
0000
0000
0000
0000
0000
0000
0000
0000
0000
03C0
03C0
03C0
03C0
03C0
03C0
FFFF
FFFF
FFFF
FFFF
03C0
03C0
03C0
03C0
03C0
03C0
0000
0000
0000
0000
0000
0000
0000
0000
0000
0000
ENDCHAR
STARTCHAR char44
ENCODING 44
SWIDTH 497 0
DWIDTH 7 0
BBX 6 40 0 -8
BITMAP
00
00
00
00
00
00
00
00
00
00
00
00
00
00
00
00
00
00
00
00
00
00
00
00
00
00
00
38
7C
7C
7C
38
38
70
F0
E0
00
00
00
00
ENDCHAR
STARTCHAR char45
ENCODING 45
SWIDTH 1207 0
DWIDTH 17 0
BBX 14 40 1 -8
BITMAP
0000
0000
0000
0000
0000
0000
0000
0000
0000
0000
0000
0000
0000
0000
0000
0000
0000
0000
0000
0000
FFFC
FFFC
FFFC
FFFC
0000
0000
0000
0000
0000
0000
0000
0000
0000
0000
0000
0000
0000
0000
0000
0000
ENDCHAR
STARTCHAR char46
ENCODING 46
SWIDTH 497 0
DWIDTH 7 0
BBX 5 40 0 -8
BITMAP
00
00
00
00
00
00
00
00
00
00
00
00
00
00
00
00
00
00
00
00
00
00
00
00
00
00
00
70
F8
F8
F8
70
00
00
00
00
00
00
00
00
ENDCHAR
STARTCHAR char47
ENCODING 47
SWIDTH 994 0
DWIDTH 14 0
BBX 14 40 0 -8
BITMAP
001C
001C
001C
0038
0038
0038
0070
0070
0070
0070
00E0
00E0
00E0
01C0
01C0
01C0
0380
0380
0380
0380
0700
0700
0700
0E00
0E00
0E00
1C00
1C00
1C00
1C00
3800
3800
3800
7000
7000
7000
E000
E000
E000
E000
ENDCHAR
STARTCHAR char48
ENCODING 48
SWIDTH 1846 0
DWIDTH 26 0
BBX 22 40 2 -8
BITMAP
000000
000000
01FE00
07FF80
0FFFC0
1FFFE0
3F87F0
3E01F0
7C00F8
780078
780078
F8007C
F8007C
F0003C
F0003C
F0003C
F0003C
F0003C
F0003C
F0003C
F0003C
F8007C
F8007C
780078
780078
7C00F8
3E01F0
3F87F0
1FFFE0
0FFFC0
07FF80
01FE00
000000
000000
000000
000000
000000
000000
000000
000000
ENDCHAR
STARTCHAR char49
ENCODING 49
SWIDTH 1846 0
DWIDTH 26 0
BBX 12 40 7 -8
BITMAP
0000
0000
0F00
3F00
FF00
FF00
FF00
0F00
0F00
0F00
0F00
0F00
0F00
0F00
0F00
0F00
0F00
0F00
0F00
0F00
0F00
0F00
0F00
0F00
0F00
0F00
0F00
0F00
FFF0
FFF0
FFF0
FFF0
0000
0000
0000
0000
0000
0000
0000
0000
ENDCHAR
STARTCHAR char50
ENCODING 50
SWIDTH 1846 0
DWIDTH 26 0
BBX 19 40 4 -8
BITMAP
000000
000000
03F800
1FFF00
3FFF80
7FFFC0
FF1FC0
F807E0
F003E0
F001E0
F001E0
0001E0
0003E0
0007E0
000FC0
003F80
007F00
00FE00
01F800
03F000
07E000
0FC000
1F8000
3F0000
7E0000
7C0000
F80000
F00000
FFFFE0
FFFFE0
FFFFE0
FFFFE0
000000
000000
000000
000000
000000
000000
000000
000000
ENDCHAR
STARTCHAR char51
ENCODING 51
SWIDTH 1846 0
DWIDTH 26 0
BBX 21 40 2 -8
BITMAP
000000
000000
03FE00
0FFFC0
1FFFE0
3FFFF0
7F07F8
FC01F8
F800F8
F80078
F00078
0000F8
0001F8
0007F0
03FFE0
03FFC0
03FF00
03FFC0
0007E0
0003F0
0000F8
0000F8
F00078
F00078
F00078
F800F8
FC00F8
7F07F8
3FFFF0
1FFFE0
0FFFC0
01FE00
000000
000000
000000
000000
000000
000000
000000
000000
ENDCHAR
STARTCHAR char52
ENCODING 52
SWIDTH 1846 0
DWIDTH 26 0
BBX 23 40 2 -8
BITMAP
000000
000000
001FE0
003FE0
003FE0
007DE0
00F9E0
01F1E0
01F1E0
03E1E0
07C1E0
07C1E0
0F81E0
1F01E0
1F01E0
3E01E0
7C01E0
7C01E0
F801E0
F001E0
FFFFFE
FFFFFE
FFFFFE
FFFFFE
0001E0
0001E0
0001E0
0001E0
0001E0
0001E0
0001E0
0001E0
000000
000000
000000
000000
000000
000000
000000
000000
ENDCHAR
STARTCHAR char53
ENCODING 53
SWIDTH 1846 0
DWIDTH 26 0
BBX 20 40 3 -8
BITMAP
000000
000000
FFFFE0
FFFFE0
FFFFE0
FFFFE0
F00000
F00000
F00000
F00000
F00000
F3FE00
F7FF00
FFFF80
FFFFC0
FE07E0
FC03E0
F801F0
F001F0
0000F0
0000F0
0000F0
0000F0
0000F0
0001F0
F001F0
F803F0
FC07E0
FFFFE0
7FFFC0
3FFF80
0FFF00
000000
000000
000000
000000
000000
000000
000000
000000
ENDCHAR
STARTCHAR char54
ENCODING 54
SWIDTH 1846 0
DWIDTH 26 0
BBX 20 40 3 -8
BITMAP
000000
000000
03FE00
0FFF80
0FFFC0
1FFFE0
3F07E0
3E01E0
7C0000
7C0000
780000
F80000
F80000
F3FC00
F7FF00
FFFF80
FFFFC0
FE07E0
FC03E0
F801F0
F801F0
F000F0
F000F0
F000F0
F801F0
F801F0
7C03E0
7E07E0
3FFFC0
1FFF80
0FFF00
03FC00
000000
000000
000000
000000
000000
000000
000000
000000
ENDCHAR
STARTCHAR char55
ENCODING 55
SWIDTH 1846 0
DWIDTH 26 0
BBX 18 40 4 -8
BITMAP
000000
000000
FFFFC0
FFFFC0
FFFFC0
FFFFC0
0007C0
000780
000F80
000F00
001F00
001E00
003E00
003C00
007C00
007800
00F800
00F000
01F000
01E000
03E000
03C000
07C000
078000
0F8000
0F0000
1F0000
1E0000
3E0000
3C0000
3C0000
380000
000000
000000
000000
000000
000000
000000
000000
000000
ENDCHAR
STARTCHAR char56
ENCODING 56
SWIDTH 1846 0
DWIDTH 26 0
BBX 20 40 2 -8
BITMAP
000000
000000
01F800
07FE00
1FFF80
3FFFC0
3E07C0
7C03E0
7801E0
7801E0
7801E0
3C03C0
3C03C0
1F0F80
1FFF80
07FE00
03FC00
0FFF00
3FFFC0
3F9FC0
7E07E0
F801F0
F000F0
F000F0
F000F0
F801F0
FE07F0
7F0FE0
7FFFE0
3FFF80
0FFF00
03FC00
000000
000000
000000
000000
000000
000000
000000
000000
ENDCHAR
STARTCHAR char57
ENCODING 57
SWIDTH 1846 0
DWIDTH 26 0
BBX 20 40 3 -8
BITMAP
000000
000000
03FC00
0FFF00
1FFF80
3FFFC0
7E07E0
7C03E0
F801F0
F801F0
F000F0
F000F0
F000F0
F801F0
F801F0
7C03F0
7E07F0
3FFFF0
1FFFF0
0FFEF0
03FCF0
0001F0
0001F0
0001E0
0003E0
0003E0
7807C0
7E0FC0
7FFF80
3FFF00
1FFF00
07FC00
000000
000000
000000
000000
000000
000000
000000
000000
ENDCHAR
STARTCHAR char58
ENCODING 58
SWIDTH 497 0
DWIDTH 7 0
BBX 5 40 0 -8
BITMAP
00
00
00
00
00
00
00
00
00
00
00
00
00
70
F8
F8
F8
70
00
00
00
00
00
00
00
00
00
70
F8
F8
F8
70
00
00
00
00
00
00
00
00
ENDCHAR
STARTCHAR char59
ENCODING 59
SWIDTH 568 0
DWIDTH 8 0
BBX 6 40 0 -8
BITMAP
00
00
00
00
00
00
00
00
00
00
00
00
00
38
7C
7C
7C
38
00
00
00
00
00
00
00
00
00
38
7C
7C
7C
38
70
70
70
E0
E0
00
00
00
ENDCHAR
STARTCHAR char60
ENCODING 60
SWIDTH 1775 0
DWIDTH 25 0
BBX 20 40 1 -8
BITMAP
000000
000000
000000
000000
000000
000000
000000
000000
000000
000000
000000
0000F0
0001F0
0007F0
001F80
007E00
01F800
07E000
1FC000
FE0000
FE0000
FE0000
1FC000
07E000
01F800
007E00
001F80
0007F0
0001F0
0000F0
000000
000000
000000
000000
000000
000000
000000
000000
000000
000000
ENDCHAR
STARTCHAR char61
ENCODING 61
SWIDTH 1775 0
DWIDTH 25 0
BBX 20 40 1 -8
BITMAP
000000
000000
000000
000000
000000
000000
000000
000000
000000
000000
000000
000000
000000
000000
000000
000000
FFFFF0
FFFFF0
FFFFF0
000000
000000
000000
000000
FFFFF0
FFFFF0
FFFFF0
000000
000000
000000
000000
000000
000000
000000
000000
000000
000000
000000
000000
000000
000000
ENDCHAR
STARTCHAR char62
ENCODING 62
SWIDTH 1775 0
DWIDTH 25 0
BBX 20 40 1 -8
BITMAP
000000
000000
000000
000000
000000
000000
000000
000000
000000
000000
000000
F00000
F80000
FE0000
1F8000
07E000
01F800
007E00
003F80
0007F0
0007F0
0007F0
003F80
007E00
01F800
07E000
1FC000
FE0000
F80000
F00000
000000
000000
000000
000000
000000
000000
000000
000000
000000
000000
ENDCHAR
STARTCHAR char63
ENCODING 63
SWIDTH 1278 0
DWIDTH 18 0
BBX 16 40 0 -8
BITMAP
0000
0000
0FF0
3FF8
7FFC
7FFE
F01E
E00F
E00F
F00F
F80F
781E
303E
007C
00F8
01F0
03E0
03C0
0380
0700
0700
0700
0700
0700
0200
0200
0000
0000
0700
0F80
0F80
0700
0000
0000
0000
0000
0000
0000
0000
0000
ENDCHAR
STARTCHAR char64
ENCODING 64
SWIDTH 1775 0
DWIDTH 25 0
BBX 21 40 0 -8
BITMAP
000000
000000
000000
000000
000000
000000
000000
000000
000000
000000
03FE00
0FFF80
3FFFE0
7001F0
E000F8
E00078
E00038
E1FC38
E3FFB8
E383B8
E383B8
E383B8
E383F8
E3FFF0
E1FFE0
E00000
F00000
F80000
7C0078
3FFFF0
0FFFE0
03FF80
000000
000000
000000
000000
000000
000000
000000
000000
ENDCHAR
STARTCHAR char65
ENCODING 65
SWIDTH 1846 0
DWIDTH 26 0
BBX 24 40 0 -8
BITMAP
000000
000000
003C00
003C00
007E00
007E00
00FF00
00FF00
00FF00
01FF80
01E780
01E780
03E7C0
03C3C0
03C3C0
07C3E0
0781E0
0781E0
0F81F0
0F00F0
0FFFF0
1FFFF8
1FFFF8
1FFFF8
3E007C
3C003C
3C003C
7C003E
78001E
78001E
F8001F
F0000F
000000
000000
000000
000000
000000
000000
000000
000000
ENDCHAR
STARTCHAR char66
ENCODING 66
SWIDTH 1633 0
DWIDTH 23 0
BBX 20 40 1 -8
BITMAP
000000
000000
FFFE00
FFFFC0
FFFFE0
FFFFE0
F007F0
F001F0
F001F0
F000F0
F000F0
F000F0
F001F0
F001E0
F007E0
FFFFC0
FFFF00
FFFFC0
FFFFE0
F007E0
F001F0
F001F0
F000F0
F000F0
F000F0
F001F0
F001F0
F007F0
FFFFE0
FFFFE0
FFFFC0
FFFE00
000000
000000
000000
000000
000000
000000
000000
000000
ENDCHAR
STARTCHAR char67
ENCODING 67
SWIDTH 1846 0
DWIDTH 26 0
BBX 23 40 1 -8
BITMAP
000000
000000
00FF00
07FFE0
0FFFF0
1FFFF8
3FC3FC
3E007E
7C003E
7C001E
78001E
F8001E
F80000
F80000
F80000
F00000
F00000
F00000
F00000
F00000
F80000
F80000
F8001E
F8001E
7C003E
7C003E
7E007E
3FC3FC
3FFFF8
1FFFF0
0FFFE0
01FF00
000000
000000
000000
000000
000000
000000
000000
000000
ENDCHAR
STARTCHAR char68
ENCODING 68
SWIDTH 1704 0
DWIDTH 24 0
BBX 21 40 1 -8
BITMAP
000000
000000
FFFE00
FFFF80
FFFFC0
FFFFE0
F007F0
F001F0
F000F8
F000F8
F00078
F00078
F00078
F00078
F00078
F00078
F00078
F00078
F00078
F00078
F00078
F00078
F00078
F00078
F000F8
F000F8
F001F0
F007F0
FFFFE0
FFFFC0
FFFF80
FFFE00
000000
000000
000000
000000
000000
000000
000000
000000
ENDCHAR
STARTCHAR char69
ENCODING 69
SWIDTH 1562 0
DWIDTH 22 0
BBX 19 40 1 -8
BITMAP
000000
000000
FFFFE0
FFFFE0
FFFFE0
FFFFE0
F00000
F00000
F00000
F00000
F00000
F00000
F00000
F00000
F00000
FFFC00
FFFC00
FFFC00
FFFC00
F00000
F00000
F00000
F00000
F00000
F00000
F00000
F00000
F00000
FFFFE0
FFFFE0
FFFFE0
FFFFE0
000000
000000
000000
000000
000000
000000
000000
000000
ENDCHAR
STARTCHAR char70
ENCODING 70
SWIDTH 1562 0
DWIDTH 22 0
BBX 19 40 1 -8
BITMAP
000000
000000
FFFFE0
FFFFE0
FFFFE0
FFFFE0
F00000
F00000
F00000
F00000
F00000
F00000
F00000
F00000
F00000
FFFC00
FFFC00
FFFC00
FFFC00
F00000
F00000
F00000
F00000
F00000
F00000
F00000
F00000
F00000
F00000
F00000
F00000
F00000
000000
000000
000000
000000
000000
000000
000000
000000
ENDCHAR
STARTCHAR char71
ENCODING 71
SWIDTH 1846 0
DWIDTH 26 0
BBX 23 40 1 -8
BITMAP
000000
000000
00FF00
07FFE0
0FFFF0
1FFFF8
3FC3FC
3E007E
7C003E
7C001E
78001E
F8001E
F80000
F80000
F80000
F00000
F00000
F00000
F01FFE
F01FFE
F81FFE
F81FFE
F8001E
F8001E
7C003E
7C003E
7E007E
3FC3FE
3FFFFE
1FFFFE
0FFFDE
01FF1E
000000
000000
000000
000000
000000
000000
000000
000000
ENDCHAR
STARTCHAR char72
ENCODING 72
SWIDTH 1633 0
DWIDTH 23 0
BBX 20 40 1 -8
BITMAP
000000
000000
F000F0
F000F0
F000F0
F000F0
F000F0
F000F0
F000F0
F000F0
F000F0
F000F0
F000F0
F000F0
F000F0
FFFFF0
FFFFF0
FFFFF0
FFFFF0
F000F0
F000F0
F000F0
F000F0
F000F0
F000F0
F000F0
F000F0
F000F0
F000F0
F000F0
F000F0
F000F0
000000
000000
000000
000000
000000
000000
000000
000000
ENDCHAR
STARTCHAR char73
ENCODING 73
SWIDTH 568 0
DWIDTH 8 0
BBX 4 40 1 -8
BITMAP
00
00
F0
F0
F0
F0
F0
F0
F0
F0
F0
F0
F0
F0
F0
F0
F0
F0
F0
F0
F0
F0
F0
F0
F0
F0
F0
F0
F0
F0
F0
F0
00
00
00
00
00
00
00
00
ENDCHAR
STARTCHAR char74
ENCODING 74
SWIDTH 1278 0
DWIDTH 18 0
BBX 16 40 0 -8
BITMAP
0000
0000
000F
000F
000F
000F
000F
000F
000F
000F
000F
000F
000F
000F
000F
000F
000F
000F
000F
000F
000F
000F
000F
000F
000F
000F
F01F
F83F
FFFF
7FFE
3FFC
1FF8
0000
0000
0000
0000
0000
0000
0000
0000
ENDCHAR
STARTCHAR char75
ENCODING 75
SWIDTH 1562 0
DWIDTH 22 0
BBX 19 40 1 -8
BITMAP
000000
000000
F001C0
F003C0
F007C0
F00FC0
F01F80
F03F00
F07E00
F0FC00
F1F800
F3F000
F7E000
FFC000
FF8000
FF0000
FF0000
FF8000
FFC000
F7E000
F3F000
F1F800
F0FC00
F07E00
F03F00
F01F80
F00FC0
F007E0
F003E0
F001E0
F000E0
F00060
000000
000000
000000
000000
000000
000000
000000
000000
ENDCHAR
STARTCHAR char76
ENCODING 76
SWIDTH 1420 0
DWIDTH 20 0
BBX 17 40 1 -8
BITMAP
000000
000000
F00000
F00000
F00000
F00000
F00000
F00000
F00000
F00000
F00000
F00000
F00000
F00000
F00000
F00000
F00000
F00000
F00000
F00000
F00000
F00000
F00000
F00000
F00000
F00000
F00000
F00000
FFFF80
FFFF80
FFFF80
FFFF80
000000
000000
000000
000000
000000
000000
000000
000000
ENDCHAR
STARTCHAR char77
ENCODING 77
SWIDTH 2059 0
DWIDTH 29 0
BBX 26 40 1 -8
BITMAP
00000000
00000000
E00001C0
F00003C0
F00003C0
F80007C0
F80007C0
FC000FC0
FC000FC0
FE001FC0
FE001FC0
FF003FC0
FF003FC0
FF807FC0
F7807BC0
F7C0FBC0
F3C0F3C0
F3E1F3C0
F1E1E3C0
F1F3E3C0
F0F3C3C0
F0FFC3C0
F07F83C0
F07F83C0
F03F03C0
F03F03C0
F01E03C0
F01E03C0
F00003C0
F00003C0
F00003C0
F00003C0
00000000
00000000
00000000
00000000
00000000
00000000
00000000
00000000
ENDCHAR
STARTCHAR char78
ENCODING 78
SWIDTH 1633 0
DWIDTH 23 0
BBX 20 40 1 -8
BITMAP
000000
000000
F800F0
F800F0
FC00F0
FC00F0
FE00F0
FE00F0
FF00F0
FF00F0
FF80F0
F780F0
F7C0F0
F3C0F0
F3E0F0
F1E0F0
F1F0F0
F0F0F0
F0F8F0
F078F0
F07CF0
F03CF0
F03EF0
F01EF0
F01FF0
F00FF0
F00FF0
F007F0
F007F0
F003F0
F001F0
F001F0
000000
000000
000000
000000
000000
000000
000000
000000
ENDCHAR
STARTCHAR char79
ENCODING 79
SWIDTH 1846 0
DWIDTH 26 0
BBX 23 40 1 -8
BITMAP
000000
000000
01FF00
07FFC0
0FFFE0
1FFFF0
1F83F0
3E00F8
3C00F8
7C007C
78007C
78003C
F8003E
F8003E
F0001E
F0001E
F0001E
F0001E
F0001E
F0001E
F8003E
F8003E
F8003C
78003C
7C007C
3C0078
3E00F8
1F83F0
1FFFF0
0FFFE0
07FFC0
01FF00
000000
000000
000000
000000
000000
000000
000000
000000
ENDCHAR
STARTCHAR char80
ENCODING 80
SWIDTH 1633 0
DWIDTH 23 0
BBX 20 40 1 -8
BITMAP
000000
000000
FFFF00
FFFFC0
FFFFE0
FFFFE0
F003F0
F001F0
F000F0
F000F0
F000F0
F000F0
F000F0
F001F0
F003F0
FFFFE0
FFFFE0
FFFFC0
FFFF00
F00000
F00000
F00000
F00000
F00000
F00000
F00000
F00000
F00000
F00000
F00000
F00000
F00000
000000
000000
000000
000000
000000
000000
000000
000000
ENDCHAR
STARTCHAR char81
ENCODING 81
SWIDTH 1846 0
DWIDTH 26 0
BBX 23 40 1 -8
BITMAP
000000
000000
01FF00
07FFC0
0FFFE0
1FFFF0
1F83F0
3E00F8
3C00F8
7C007C
78007C
78003C
F8003E
F8003E
F0001E
F0001E
F0001E
F0001E
F0001E
F0001E
F8003E
F8003E
F8003C
78003C
7C007C
3C0078
3E00F8
1F83F0
1FFFF0
0FFFE0
07FFC0
01FF00
000F00
000F80
0007E0
0003F8
0001FC
00007C
000000
000000
ENDCHAR
STARTCHAR char82
ENCODING 82
SWIDTH 1633 0
DWIDTH 23 0
BBX 20 40 1 -8
BITMAP
000000
000000
FFFF00
FFFFC0
FFFFE0
FFFFE0
F007F0
F001F0
F000F0
F000F0
F000F0
F000F0
F000F0
F001F0
F007F0
FFFFE0
FFFFE0
FFFFC0
FFFF00
F0F800
F07C00
F07C00
F03E00
F01F00
F01F00
F00F80
F007C0
F007C0
F003E0
F001F0
F001F0
F000F0
000000
000000
000000
000000
000000
000000
000000
000000
ENDCHAR
STARTCHAR char83
ENCODING 83
SWIDTH 1562 0
DWIDTH 22 0
BBX 19 40 1 -8
BITMAP
000000
000000
03F800
0FFE00
3FFF80
7FFF80
FE0FE0
FC07E0
F803E0
F00000
F00000
F00000
F80000
FE0000
7FC000
3FF800
1FFE00
07FF80
007F80
001FC0
0007E0
0003E0
0001E0
0001E0
F001E0
F803E0
FC07E0
7E0FE0
3FFFC0
3FFF80
1FFF00
03F800
000000
000000
000000
000000
000000
000000
000000
000000
ENDCHAR
STARTCHAR char84
ENCODING 84
SWIDTH 1704 0
DWIDTH 24 0
BBX 22 40 0 -8
BITMAP
000000
000000
FFFFFC
FFFFFC
FFFFFC
FFFFFC
007800
007800
007800
007800
007800
007800
007800
007800
007800
007800
007800
007800
007800
007800
007800
007800
007800
007800
007800
007800
007800
007800
007800
007800
007800
007800
000000
000000
000000
000000
000000
000000
000000
000000
ENDCHAR
STARTCHAR char85
ENCODING 85
SWIDTH 1633 0
DWIDTH 23 0
BBX 20 40 1 -8
BITMAP
000000
000000
F000F0
F000F0
F000F0
F000F0
F000F0
F000F0
F000F0
F000F0
F000F0
F000F0
F000F0
F000F0
F000F0
F000F0
F000F0
F000F0
F000F0
F000F0
F000F0
F000F0
F000F0
F000F0
F000F0
F801F0
FC03F0
7FFFE0
7FFFE0
1FFF80
0FFF00
000000
000000
000000
000000
000000
000000
000000
000000
000000
ENDCHAR
STARTCHAR char86
ENCODING 86
SWIDTH 1917 0
DWIDTH 27 0
BBX 25 40 0 -8
BITMAP
00000000
00000000
F0000780
F0000780
F8000F80
78000F00
78000F00
7C001F00
3C001E00
3E003E00
1E003C00
1E003C00
1F007C00
0F007800
0F80F800
0780F000
0780F000
07C1F000
03C1E000
03E3E000
01E3C000
01E3C000
01F7C000
00F78000
00FF8000
007F0000
007F0000
007F0000
003E0000
003E0000
001C0000
001C0000
00000000
00000000
00000000
00000000
00000000
00000000
00000000
00000000
ENDCHAR
STARTCHAR char87
ENCODING 87
SWIDTH 2627 0
DWIDTH 37 0
BBX 35 40 0 -8
BITMAP
0000000000
0000000000
F003F801E0
F003F801E0
F003F801E0
F803F803E0
F807FC03E0
7807FC03C0
7C07BC07C0
7C07BC07C0
7C0FBE07C0
3C0F1E0780
3C0F1E0780
3E0F1E0F80
3E1F1F0F80
1E1E0F0F00
1E1E0F0F00
1F1E0F1F00
1F3E0F9E00
0F3C079E00
0F3C079E00
0FBC07BE00
07FC07FC00
07F803FC00
07F803FC00
07F803FC00
03F803F800
03F001F800
03F001F800
01F001F000
01E000F000
01E000F000
0000000000
0000000000
0000000000
0000000000
0000000000
0000000000
0000000000
0000000000
ENDCHAR
STARTCHAR char88
ENCODING 88
SWIDTH 1917 0
DWIDTH 27 0
BBX 25 40 0 -8
BITMAP
00000000
00000000
F0000780
F8000F80
FC001F80
7E003F00
3E003E00
1F007C00
0F80F800
07C1F000
07C1F000
03E3E000
01F7C000
00FF8000
007F0000
007F0000
003E0000
007F0000
007F0000
00FF8000
01FFC000
03F7E000
03E3E000
07C1F000
0F80F800
1F80FC00
1F007C00
3E003E00
7C001F00
FC001F80
F8000F80
F0000780
00000000
00000000
00000000
00000000
00000000
00000000
00000000
00000000
ENDCHAR
STARTCHAR char89
ENCODING 89
SWIDTH 1846 0
DWIDTH 26 0
BBX 24 40 0 -8
BITMAP
000000
000000
F0000F
F0000F
F8001F
7C003E
7C003E
3E007C
1F00F8
1F81F0
0F81F0
07C3E0
03E7C0
01FF80
01FF80
00FF00
007E00
007E00
003C00
003C00
003C00
003C00
003C00
003C00
003C00
003C00
003C00
003C00
003C00
003C00
003C00
003C00
000000
000000
000000
000000
000000
000000
000000
000000
ENDCHAR
STARTCHAR char90
ENCODING 90
SWIDTH 1633 0
DWIDTH 23 0
BBX 21 40 0 -8
BITMAP
000000
000000
FFFFF8
FFFFF8
FFFFF8
FFFFF8
0000F8
0001F0
0003E0
0003C0
0007C0
000F80
001F00
001E00
003E00
007C00
00F800
00F000
01F000
03E000
07C000
078000
0F8000
1F0000
3E0000
3C0000
7C0000
F80000
FFFFF8
FFFFF8
FFFFF8
FFFFF8
000000
000000
000000
000000
000000
000000
000000
000000
ENDCHAR
STARTCHAR char91
ENCODING 91
SWIDTH 1775 0
DWIDTH 25 0
BBX 9 40 11 -8
BITMAP
FF80
FF80
FF80
E000
E000
E000
E000
E000
E000
E000
E000
E000
E000
E000
E000
E000
E000
E000
E000
E000
E000
E000
E000
E000
E000
E000
E000
E000
E000
FF80
FF80
FF80
0000
0000
0000
0000
0000
0000
0000
0000
ENDCHAR
STARTCHAR char92
ENCODING 92
SWIDTH 1775 0
DWIDTH 25 0
BBX 18 40 2 -8
BITMAP
F00000
F00000
F00000
780000
780000
3C0000
3C0000
1E0000
0E0000
0F0000
0F0000
078000
078000
03C000
03C000
01E000
01F000
00F000
00F000
007800
007800
003C00
003C00
001E00
000E00
000F00
000F00
000780
000780
0003C0
0003C0
0001C0
000000
000000
000000
000000
000000
000000
000000
000000
ENDCHAR
STARTCHAR char93
ENCODING 93
SWIDTH 1775 0
DWIDTH 25 0
BBX 10 40 1 -8
BITMAP
FFC0
FFC0
FFC0
01C0
01C0
01C0
01C0
01C0
01C0
01C0
01C0
01C0
01C0
01C0
01C0
01C0
01C0
01C0
01C0
01C0
01C0
01C0
01C0
01C0
01C0
01C0
01C0
01C0
01C0
FFC0
FFC0
FFC0
0000
0000
0000
0000
0000
0000
0000
0000
ENDCHAR
STARTCHAR char94
ENCODING 94
SWIDTH 1775 0
DWIDTH 25 0
BBX 23 40 0 -8
BITMAP
001000
003800
007C00
00FE00
01FF00
03C7C0
0787C0
0F01E0
1E00F0
3C0078
78003C
F0001E
000000
000000
000000
000000
000000
000000
000000
000000
000000
000000
000000
000000
000000
000000
000000
000000
000000
000000
000000
000000
000000
000000
000000
000000
000000
000000
000000
000000
ENDCHAR
STARTCHAR char95
ENCODING 95
SWIDTH 1775 0
DWIDTH 25 0
BBX 25 40 0 -8
BITMAP
00000000
00000000
00000000
00000000
00000000
00000000
00000000
00000000
00000000
00000000
00000000
00000000
00000000
00000000
00000000
00000000
00000000
00000000
00000000
00000000
00000000
00000000
00000000
00000000
00000000
00000000
00000000
00000000
00000000
00000000
00000000
00000000
00000000
00000000
00000000
FFFFFF80
FFFFFF80
FFFFFF80
00000000
00000000
ENDCHAR
STARTCHAR char96
ENCODING 96
SWIDTH 1775 0
DWIDTH 25 0
BBX 8 40 9 -8
BITMAP
04
0C
1C
38
78
F8
FC
FE
FF
FF
7E
7E
00
00
00
00
00
00
00
00
00
00
00
00
00
00
00
00
00
00
00
00
00
00
00
00
00
00
00
00
ENDCHAR
STARTCHAR char97
ENCODING 97
SWIDTH 1349 0
DWIDTH 19 0
BBX 16 40 1 -8
BITMAP
0000
0000
0000
0000
0000
0000
0000
0000
0000
0000
0000
0FF0
3FF8
7FFC
FFFE
F83E
F01E
000F
0FEF
3FFF
7FFF
7FFF
FC3F
F81F
F00F
F00F
F81F
FC3F
FFFF
7FFF
3FFF
1FEF
0000
0000
0000
0000
0000
0000
0000
0000
ENDCHAR
STARTCHAR char98
ENCODING 98
SWIDTH 1420 0
DWIDTH 20 0
BBX 17 40 1 -8
BITMAP
000000
000000
F00000
F00000
F00000
F00000
F00000
F00000
F00000
F00000
F00000
F00000
F3F000
FFFC00
FFFE00
FFFE00
FC1F00
F80F80
F00780
F00780
F00780
F00780
F00780
F00780
F00780
F00780
F80F80
FC1F00
FFFF00
FFFE00
FFFC00
F3F000
000000
000000
000000
000000
000000
000000
000000
000000
ENDCHAR
STARTCHAR char99
ENCODING 99
SWIDTH 1420 0
DWIDTH 20 0
BBX 17 40 1 -8
BITMAP
000000
000000
000000
000000
000000
000000
000000
000000
000000
000000
000000
000000
03F800
1FFE00
3FFF00
3FFF80
7E1F80
7C0780
F80000
F80000
F00000
F00000
F00000
F00000
F80000
F80000
7C0780
7E1F80
3FFF80
3FFF00
1FFE00
03F800
000000
000000
000000
000000
000000
000000
000000
000000
ENDCHAR
STARTCHAR char100
ENCODING 100
SWIDTH 1420 0
DWIDTH 20 0
BBX 17 40 1 -8
BITMAP
000000
000000
000780
000780
000780
000780
000780
000780
000780
000780
000780
000780
07E780
1FFF80
3FFF80
3FFF80
7C1F80
F80F80
F00780
F00780
F00780
F00780
F00780
F00780
F00780
F00780
F80F80
7C1F80
7FFF80
3FFF80
1FFF80
07E780
000000
000000
000000
000000
000000
000000
000000
000000
ENDCHAR
STARTCHAR char101
ENCODING 101
SWIDTH 1491 0
DWIDTH 21 0
BBX 19 40 0 -8
BITMAP
000000
000000
000000
000000
000000
000000
000000
000000
000000
000000
000000
03F800
0FFE00
1FFF00
3FFF80
7E0FC0
7803C0
F803E0
F001E0
FFFFE0
FFFFE0
FFFFE0
FFFFE0
F00000
F00000
F80000
7801E0
7E07E0
3FFFC0
1FFF80
0FFF00
03FC00
000000
000000
000000
000000
000000
000000
000000
000000
ENDCHAR
STARTCHAR char102
ENCODING 102
SWIDTH 923 0
DWIDTH 13 0
BBX 11 40 0 -8
BITMAP
0000
0000
03E0
07E0
0FE0
0FE0
1F00
1E00
1E00
1E00
1E00
FFE0
FFE0
FFE0
FFE0
1E00
1E00
1E00
1E00
1E00
1E00
1E00
1E00
1E00
1E00
1E00
1E00
1E00
1E00
1E00
1E00
1E00
0000
0000
0000
0000
0000
0000
0000
0000
ENDCHAR
STARTCHAR char103
ENCODING 103
SWIDTH 1562 0
DWIDTH 22 0
BBX 19 40 1 -8
BITMAP
000000
000000
000000
000000
000000
000000
000000
000000
000000
000000
0000E0
0FF3E0
1FFBE0
3FFFC0
7FFE00
F81F00
F00F00
F00F00
F00F00
F00F00
F81F00
FFFF00
7FFE00
3FFC00
3FF800
7C0000
780000
780000
3FFC00
3FFF00
7FFFC0
7FFFC0
FC07E0
F001E0
F001E0
FC07E0
7FFFC0
7FFFC0
3FFF80
0FFE00
ENDCHAR
STARTCHAR char104
ENCODING 104
SWIDTH 1420 0
DWIDTH 20 0
BBX 17 40 1 -8
BITMAP
000000
000000
F00000
F00000
F00000
F00000
F00000
F00000
F00000
F00000
F00000
F00000
F3F000
FFFC00
FFFE00
FFFE00
FC1F00
F80F80
F00780
F00780
F00780
F00780
F00780
F00780
F00780
F00780
F00780
F00780
F00780
F00780
F00780
F00780
000000
000000
000000
000000
000000
000000
000000
000000
ENDCHAR
STARTCHAR char105
ENCODING 105
SWIDTH 568 0
DWIDTH 8 0
BBX 4 40 1 -8
BITMAP
00
00
60
F0
F0
F0
60
00
00
00
00
F0
F0
F0
F0
F0
F0
F0
F0
F0
F0
F0
F0
F0
F0
F0
F0
F0
F0
F0
F0
F0
00
00
00
00
00
00
00
00
ENDCHAR
STARTCHAR char106
ENCODING 106
SWIDTH 710 0
DWIDTH 10 0
BBX 8 40 0 -8
BITMAP
00
00
06
0F
0F
0F
06
00
00
00
00
0F
0F
0F
0F
0F
0F
0F
0F
0F
0F
0F
0F
0F
0F
0F
0F
0F
0F
0F
0F
0F
0F
0F
1F
3F
FF
FE
FE
F8
ENDCHAR
STARTCHAR char107
ENCODING 107
SWIDTH 1349 0
DWIDTH 19 0
BBX 16 40 1 -8
BITMAP
0000
0000
F000
F000
F000
F000
F000
F000
F000
F000
F000
F03C
F07C
F0FC
F1F8
F3F0
F7E0
FFC0
FF80
FF00
FF00
FF80
FFC0
F7E0
F3F0
F1F8
F0FC
F07E
F03F
F01F
F00F
F007
0000
0000
0000
0000
0000
0000
0000
0000
ENDCHAR
STARTCHAR char108
ENCODING 108
SWIDTH 568 0
DWIDTH 8 0
BBX 4 40 1 -8
BITMAP
00
00
F0
F0
F0
F0
F0
F0
F0
F0
F0
F0
F0
F0
F0
F0
F0
F0
F0
F0
F0
F0
F0
F0
F0
F0
F0
F0
F0
F0
F0
F0
00
00
00
00
00
00
00
00
ENDCHAR
STARTCHAR char109
ENCODING 109
SWIDTH 2059 0
DWIDTH 29 0
BBX 26 40 1 -8
BITMAP
00000000
00000000
00000000
00000000
00000000
00000000
00000000
00000000
00000000
00000000
00000000
F3E0F800
F7F1FC00
FFFBFF00
FFFFFF00
FE7FCF80
FC3F8780
F83F07C0
F81F03C0
F01E03C0
F01E03C0
F01E03C0
F01E03C0
F01E03C0
F01E03C0
F01E03C0
F01E03C0
F01E03C0
F01E03C0
F01E03C0
F01E03C0
F01E03C0
00000000
00000000
00000000
00000000
00000000
00000000
00000000
00000000
ENDCHAR
STARTCHAR char110
ENCODING 110
SWIDTH 1278 0
DWIDTH 18 0
BBX 15 40 1 -8
BITMAP
0000
0000
0000
0000
0000
0000
0000
0000
0000
0000
0000
F3E0
F7F0
FFF8
FFFC
FE7C
FC3E
F83E
F81E
F01E
F01E
F01E
F01E
F01E
F01E
F01E
F01E
F01E
F01E
F01E
F01E
F01E
0000
0000
0000
0000
0000
0000
0000
0000
ENDCHAR
STARTCHAR char111
ENCODING 111
SWIDTH 1349 0
DWIDTH 19 0
BBX 17 40 0 -8
BITMAP
000000
000000
000000
000000
000000
000000
000000
000000
000000
000000
000000
07F000
1FFC00
3FFE00
7FFF00
7C1F00
F80F80
F00780
F00780
F00780
F00780
F00780
F00780
F00780
F00780
F00780
F80F80
7C1F00
7FFF00
3FFE00
1FFC00
07F000
000000
000000
000000
000000
000000
000000
000000
000000
ENDCHAR
STARTCHAR char112
ENCODING 112
SWIDTH 1491 0
DWIDTH 21 0
BBX 18 40 1 -8
BITMAP
000000
000000
000000
000000
000000
000000
000000
000000
000000
000000
000000
F3F800
F7FC00
FFFF00
FFFF00
FE1F80
FC0F80
F807C0
F807C0
F003C0
F003C0
F003C0
F003C0
F003C0
F807C0
F807C0
FC0F80
FE1F80
FFFF00
FFFF00
F7FC00
F3F800
F00000
F00000
F00000
F00000
F00000
F00000
F00000
F00000
ENDCHAR
STARTCHAR char113
ENCODING 113
SWIDTH 1491 0
DWIDTH 21 0
BBX 18 40 1 -8
BITMAP
000000
000000
000000
000000
000000
000000
000000
000000
000000
000000
000000
07F3C0
0FFBC0
3FFFC0
3FFFC0
7E1FC0
7C0FC0
F807C0
F807C0
F003C0
F003C0
F003C0
F003C0
F003C0
F807C0
F807C0
7C0FC0
7E1FC0
3FFFC0
3FFFC0
0FFBC0
07F3C0
0003C0
0003C0
0003C0
0003C0
0003C0
0003C0
0003C0
0003C0
ENDCHAR
STARTCHAR char114
ENCODING 114
SWIDTH 1065 0
DWIDTH 15 0
BBX 12 40 1 -8
BITMAP
0000
0000
0000
0000
0000
0000
0000
0000
0000
0000
0000
0000
F1F0
F3F0
F7F0
FFF0
FF00
FE00
FC00
F800
F000
F000
F000
F000
F000
F000
F000
F000
F000
F000
F000
F000
0000
0000
0000
0000
0000
0000
0000
0000
ENDCHAR
STARTCHAR char115
ENCODING 115
SWIDTH 1278 0
DWIDTH 18 0
BBX 15 40 1 -8
BITMAP
0000
0000
0000
0000
0000
0000
0000
0000
0000
0000
0000
0FE0
3FF8
7FFC
FFFE
FC3E
F01E
F000
F800
FF00
7FC0
1FF8
07FC
01FE
003E
F01E
F81E
FC3E
FFFE
7FFC
3FF8
0FE0
0000
0000
0000
0000
0000
0000
0000
0000
ENDCHAR
STARTCHAR char116
ENCODING 116
SWIDTH 994 0
DWIDTH 14 0
BBX 12 40 0 -8
BITMAP
0000
0000
0F00
0F00
0F00
0F00
0F00
0F00
0F00
0F00
FFF0
FFF0
FFF0
FFF0
0F00
0F00
0F00
0F00
0F00
0F00
0F00
0F00
0F00
0F00
0F00
0F00
0F00
0F80
0FF0
0FF0
07F0
03F0
0000
0000
0000
0000
0000
0000
0000
0000
ENDCHAR
STARTCHAR char117
ENCODING 117
SWIDTH 1420 0
DWIDTH 20 0
BBX 17 40 1 -8
BITMAP
000000
000000
000000
000000
000000
000000
000000
000000
000000
000000
000000
F00780
F00780
F00780
F00780
F00780
F00780
F00780
F00780
F00780
F00780
F00780
F00780
F00780
F00780
F00780
F81F80
FC3F80
7FFF80
3FFF80
1FFF80
07E780
000000
000000
000000
000000
000000
000000
000000
000000
ENDCHAR
STARTCHAR char118
ENCODING 118
SWIDTH 1491 0
DWIDTH 21 0
BBX 19 40 0 -8
BITMAP
000000
000000
000000
000000
000000
000000
000000
000000
000000
000000
000000
E000E0
F001E0
F001E0
7803C0
7803C0
3C0780
3C0780
1E0F00
1E0F00
0F1E00
0F1E00
07BC00
07BC00
03F800
03F800
01F000
01F000
00E000
00E000
004000
004000
000000
000000
000000
000000
000000
000000
000000
000000
ENDCHAR
STARTCHAR char119
ENCODING 119
SWIDTH 1917 0
DWIDTH 27 0
BBX 25 40 0 -8
BITMAP
00000000
00000000
00000000
00000000
00000000
00000000
00000000
00000000
00000000
00000000
00000000
00000000
F0000780
F81C0F80
781C0F00
781C0F00
7C3E1F00
3C3E1E00
3C3E1E00
3E7F3E00
1E7F3C00
1E7F3C00
1EF7BC00
0FE3F800
0FE3F800
0FE3F800
07C1F000
07C1F000
07C1F000
0380E000
0380E000
0380E000
00000000
00000000
00000000
00000000
00000000
00000000
00000000
00000000
ENDCHAR
STARTCHAR char120
ENCODING 120
SWIDTH 1349 0
DWIDTH 19 0
BBX 17 40 0 -8
BITMAP
000000
000000
000000
000000
000000
000000
000000
000000
000000
000000
000000
000000
F00780
F80F80
F80F80
7C1F00
3E3E00
3E3E00
1F7C00
0FF800
07F000
03E000
07F000
0FF800
1FFC00
1F7C00
3E3E00
7C1F00
7C1F00
F80F80
F00780
E00380
000000
000000
000000
000000
000000
000000
000000
000000
ENDCHAR
STARTCHAR char121
ENCODING 121
SWIDTH 1633 0
DWIDTH 23 0
BBX 21 40 0 -8
BITMAP
000000
000000
000000
000000
000000
000000
000000
000000
000000
000000
000000
000000
F00078
F800F8
7800F0
7C01F0
3C01E0
3E03E0
1E03C0
1F07C0
0F0780
0F8F80
078F00
07DF00
03DE00
03FE00
01FC00
01FC00
00F800
00F800
007800
00F000
00F000
01E000
03E000
07C000
FFC000
FF8000
FF0000
FC0000
ENDCHAR
STARTCHAR char122
ENCODING 122
SWIDTH 1349 0
DWIDTH 19 0
BBX 16 40 1 -8
BITMAP
0000
0000
0000
0000
0000
0000
0000
0000
0000
0000
0000
0000
FFFF
FFFF
FFFF
FFFF
003F
007E
00FC
01F8
03F0
07E0
0FC0
1F80
3F00
7E00
FC00
F800
FFFF
FFFF
FFFF
FFFF
0000
0000
0000
0000
0000
0000
0000
0000
ENDCHAR
STARTCHAR char123
ENCODING 123
SWIDTH 1775 0
DWIDTH 25 0
BBX 9 40 11 -8
BITMAP
0780
0F00
1C00
3800
3800
3800
3800
3C00
3C00
3C00
3C00
3C00
3C00
7800
F800
F800
F800
F800
7800
3C00
3C00
3C00
3C00
3C00
3C00
3800
3800
3800
3800
1C00
0F00
0780
0000
0000
0000
0000
0000
0000
0000
0000
ENDCHAR
STARTCHAR char124
ENCODING 124
SWIDTH 1775 0
DWIDTH 25 0
BBX 4 40 9 -8
BITMAP
F0
F0
F0
F0
F0
F0
F0
F0
F0
F0
F0
F0
F0
F0
F0
F0
F0
F0
F0
F0
F0
F0
F0
F0
F0
F0
F0
F0
F0
F0
F0
F0
F0
F0
F0
F0
F0
F0
F0
F0
ENDCHAR
STARTCHAR char125
ENCODING 125
SWIDTH 1775 0
DWIDTH 25 0
BBX 8 40 2 -8
BITMAP
F0
78
1C
1E
0E
0E
1C
1C
1C
1C
1C
1C
1C
0E
0F
0F
0F
0F
0E
1C
1C
1C
1C
1C
1C
1C
0E
0E
1E
1C
78
F0
00
00
00
00
00
00
00
00
ENDCHAR
STARTCHAR char126
ENCODING 126
SWIDTH 1775 0
DWIDTH 25 0
BBX 21 40 0 -8
BITMAP
000000
000000
000000
000000
000000
000000
000000
000000
000000
000000
000000
000000
000000
000000
000000
000000
0F8008
1FC008
3FE008
7FF018
7FF838
71FC70
E0FFF0
C07FF0
803FE0
801FC0
800F80
000000
000000
000000
000000
000000
000000
000000
000000
000000
000000
000000
000000
000000
ENDCHAR
STARTCHAR char127
ENCODING 127
SWIDTH 1775 0
DWIDTH 25 0
BBX 23 40 0 -8
BITMAP
0001F8
0003FC
0007FE
000F0E
000F0E
000F0E
000F00
001E00
001E00
001E00
001E00
003C00
003C00
003C00
003800
003800
003800
003800
003800
003800
007800
007800
007000
007000
00F000
00F000
00F000
00F000
00E000
00E000
00E000
00E000
F1C000
F1C000
F1C000
F1C000
71C000
3FC000
1F8000
0F0000
ENDCHAR
ENDFONT
